<svg width="31" height="15" viewBox="0 0 31 15" fill="none" xmlns="http://www.w3.org/2000/svg">
<path fill-rule="evenodd" clip-rule="evenodd" d="M5.10298 0H23.4585C25.0043 0 25.5648 0.160947 26.1299 0.46317C26.695 0.765394 27.1385 1.2089 27.4408 1.77401C27.743 2.33911 27.9039 2.89965 27.9039 4.44542V9.797C27.9039 11.3428 27.743 11.9033 27.4408 12.4684C27.1385 13.0335 26.695 13.477 26.1299 13.7792C25.5648 14.0815 25.0043 14.2424 23.4585 14.2424H5.10298C3.55722 14.2424 2.99668 14.0815 2.43158 13.7792C1.86647 13.477 1.42296 13.0335 1.12074 12.4684C0.818516 11.9033 0.65757 11.3428 0.65757 9.797V4.44542C0.65757 2.89965 0.818516 2.33911 1.12074 1.77401C1.42296 1.2089 1.86647 0.765394 2.43158 0.46317C2.99668 0.160947 3.55722 0 5.10298 0ZM5.10287 1.23858C3.88053 1.23858 3.4538 1.32098 3.01552 1.55538C2.66624 1.74217 2.39953 2.00889 2.21273 2.35817C1.97833 2.79645 1.89593 3.22318 1.89593 4.44552V9.7971C1.89593 11.0194 1.97833 11.4462 2.21273 11.8845C2.39953 12.2337 2.66624 12.5005 3.01552 12.6872C3.4538 12.9216 3.88053 13.004 5.10287 13.004H23.4584C24.6807 13.004 25.1075 12.9216 25.5457 12.6872C25.895 12.5005 26.1617 12.2337 26.3485 11.8845C26.5829 11.4462 26.6653 11.0194 26.6653 9.7971V4.44552C26.6653 3.22318 26.5829 2.79645 26.3485 2.35817C26.1617 2.00889 25.895 1.74217 25.5457 1.55538C25.1075 1.32098 24.6807 1.23858 23.4584 1.23858H5.10287ZM31.0004 7.04711C31.0004 8.57856 29.1427 9.52405 29.1427 9.52405V4.57017C29.1427 4.57017 31.0004 5.51565 31.0004 7.04711Z" fill="white"/>
<rect x="3.13503" y="2.37381" width="22.2925" height="9.49494" rx="1.98155" fill="white"/>
</svg>

