<svg width="22" height="14" viewBox="0 0 22 14" fill="none" xmlns="http://www.w3.org/2000/svg">
<path fill-rule="evenodd" clip-rule="evenodd" d="M17.5135 1.74152C17.4849 1.88508 17.4849 2.05772 17.4849 2.40299V11.9392C17.4849 12.2845 17.4849 12.4571 17.5135 12.6007C17.6307 13.1902 18.0916 13.6511 18.6811 13.7684C18.8247 13.7969 18.9973 13.7969 19.3426 13.7969C19.6879 13.7969 19.8605 13.7969 20.0041 13.7684C20.5936 13.6511 21.0545 13.1902 21.1718 12.6007C21.2003 12.4571 21.2003 12.2845 21.2003 11.9392V2.40299C21.2003 2.05772 21.2003 1.88508 21.1718 1.74152C21.0545 1.15197 20.5936 0.691112 20.0041 0.573844C19.8605 0.545288 19.6879 0.545288 19.3426 0.545288C18.9973 0.545288 18.8247 0.545288 18.6811 0.573844C18.0916 0.691112 17.6307 1.15197 17.5135 1.74152ZM11.664 5.37509C11.664 5.02982 11.664 4.85718 11.6925 4.71361C11.8098 4.12407 12.2706 3.66321 12.8602 3.54594C13.0037 3.51739 13.1764 3.51739 13.5217 3.51739C13.8669 3.51739 14.0396 3.51739 14.1831 3.54594C14.7727 3.66321 15.2335 4.12407 15.3508 4.71361C15.3794 4.85718 15.3794 5.02981 15.3794 5.37509V11.939C15.3794 12.2843 15.3794 12.4569 15.3508 12.6005C15.2335 13.19 14.7727 13.6509 14.1831 13.7681C14.0396 13.7967 13.8669 13.7967 13.5217 13.7967C13.1764 13.7967 13.0037 13.7967 12.8602 13.7681C12.2706 13.6509 11.8098 13.19 11.6925 12.6005C11.664 12.4569 11.664 12.2843 11.664 11.939V5.37509ZM5.99584 7.56216C5.96729 7.70572 5.96729 7.87836 5.96729 8.22364V11.9391C5.96729 12.2843 5.96729 12.457 5.99584 12.6005C6.11311 13.1901 6.57397 13.6509 7.16352 13.7682C7.30708 13.7968 7.47972 13.7968 7.82499 13.7968C8.17027 13.7968 8.34291 13.7968 8.48647 13.7682C9.07602 13.6509 9.53688 13.1901 9.65414 12.6005C9.6827 12.457 9.6827 12.2843 9.6827 11.939V8.22364C9.6827 7.87836 9.6827 7.70572 9.65414 7.56216C9.53688 6.97261 9.07602 6.51176 8.48647 6.39449C8.34291 6.36593 8.17027 6.36593 7.82499 6.36593C7.47972 6.36593 7.30708 6.36593 7.16352 6.39449C6.57397 6.51176 6.11311 6.97261 5.99584 7.56216ZM0.051017 10.039C0.0224609 10.1826 0.0224609 10.3552 0.0224609 10.7005V11.9389C0.0224609 12.2842 0.0224609 12.4569 0.051017 12.6004C0.168285 13.19 0.629142 13.6508 1.21869 13.7681C1.36225 13.7966 1.53489 13.7966 1.88017 13.7966C2.22544 13.7966 2.39808 13.7966 2.54164 13.7681C3.13119 13.6508 3.59205 13.19 3.70932 12.6004C3.73787 12.4569 3.73787 12.2842 3.73787 11.9389V10.7005C3.73787 10.3552 3.73787 10.1826 3.70932 10.039C3.59205 9.44945 3.13119 8.98859 2.54164 8.87132C2.39808 8.84277 2.22544 8.84277 1.88017 8.84277C1.53489 8.84277 1.36225 8.84277 1.21869 8.87132C0.629142 8.98859 0.168285 9.44945 0.051017 10.039Z" fill="white"/>
</svg>
