<svg width="20" height="14" viewBox="0 0 20 14" fill="none" xmlns="http://www.w3.org/2000/svg">
<path fill-rule="evenodd" clip-rule="evenodd" d="M9.92964 3.14122C12.6969 3.14134 15.3583 4.20463 17.3639 6.11133C17.5149 6.25853 17.7563 6.25667 17.905 6.10716L19.3487 4.65021C19.424 4.57438 19.466 4.47166 19.4653 4.36478C19.4647 4.25791 19.4215 4.15569 19.3453 4.08075C14.0814 -0.963927 5.77702 -0.963927 0.513113 4.08075C0.43686 4.15563 0.393601 4.25782 0.392902 4.3647C0.39219 4.47157 0.434113 4.57432 0.509367 4.65021L1.95343 6.10716C2.10206 6.2569 2.34365 6.25876 2.49458 6.11133C4.50037 4.2045 7.16212 3.14121 9.92964 3.14122ZM9.93008 7.88152C11.4505 7.88142 12.9167 8.44656 14.0437 9.4671C14.1961 9.61194 14.4362 9.6088 14.5848 9.46002L16.0268 8.00307C16.1027 7.92665 16.1449 7.82297 16.1438 7.71524C16.1427 7.60752 16.0985 7.50472 16.021 7.42986C12.589 4.2374 7.27407 4.2374 3.84208 7.42986C3.76455 7.50472 3.72032 7.60757 3.71931 7.71533C3.71828 7.82309 3.76057 7.92676 3.83666 8.00307L5.27822 9.46002C5.4268 9.6088 5.66694 9.61194 5.81937 9.4671C6.94564 8.44723 8.41065 7.88215 9.93008 7.88152ZM12.7007 11.3583C12.7778 11.2826 12.8203 11.1784 12.8181 11.0704C12.8159 10.9624 12.7692 10.86 12.6891 10.7875C11.0961 9.44022 8.76306 9.44022 7.1701 10.7875C7.08991 10.86 7.04314 10.9623 7.04085 11.0703C7.03857 11.1783 7.08096 11.2825 7.15803 11.3583L9.65276 13.8755C9.72588 13.9494 9.82556 13.9911 9.92959 13.9911C10.0336 13.9911 10.1333 13.9494 10.2064 13.8755L12.7007 11.3583Z" fill="white"/>
</svg>
